<mxfile host="app.diagrams.net" modified="2021-04-24T01:09:10.445Z" agent="5.0 (Windows NT 10.0; Win64; x64) AppleWebKit/537.36 (KHTML, like Gecko) Chrome/90.0.4430.85 Safari/537.36" etag="XX6x5bDwJjs_-f8MxRbP" version="14.6.6" type="github">
  <diagram id="BLR7Jo_UEUwd37PlyIbd" name="Page-1">
    <mxGraphModel dx="902" dy="732" grid="1" gridSize="10" guides="1" tooltips="1" connect="1" arrows="1" fold="1" page="1" pageScale="1" pageWidth="850" pageHeight="1100" math="0" shadow="0">
      <root>
        <mxCell id="0" />
        <mxCell id="1" parent="0" />
        <mxCell id="Yu2lF-P8y_EctvtPwQ7K-1" value="Functions" style="rounded=0;whiteSpace=wrap;html=1;" vertex="1" parent="1">
          <mxGeometry x="360" y="350" width="120" height="60" as="geometry" />
        </mxCell>
        <mxCell id="Yu2lF-P8y_EctvtPwQ7K-2" value="Polynomials" style="rounded=0;whiteSpace=wrap;html=1;" vertex="1" parent="1">
          <mxGeometry x="210" y="250" width="120" height="60" as="geometry" />
        </mxCell>
        <mxCell id="Yu2lF-P8y_EctvtPwQ7K-3" value="Rational" style="rounded=0;whiteSpace=wrap;html=1;" vertex="1" parent="1">
          <mxGeometry x="390" y="200" width="120" height="60" as="geometry" />
        </mxCell>
        <mxCell id="Yu2lF-P8y_EctvtPwQ7K-4" value="Irrational" style="rounded=0;whiteSpace=wrap;html=1;" vertex="1" parent="1">
          <mxGeometry x="590" y="220" width="120" height="60" as="geometry" />
        </mxCell>
        <mxCell id="Yu2lF-P8y_EctvtPwQ7K-5" value="Exponential" style="rounded=0;whiteSpace=wrap;html=1;" vertex="1" parent="1">
          <mxGeometry x="570" y="340" width="120" height="60" as="geometry" />
        </mxCell>
        <mxCell id="Yu2lF-P8y_EctvtPwQ7K-6" value="Logarithmic" style="rounded=0;whiteSpace=wrap;html=1;" vertex="1" parent="1">
          <mxGeometry x="220" y="450" width="120" height="60" as="geometry" />
        </mxCell>
      </root>
    </mxGraphModel>
  </diagram>
</mxfile>
